<svg width="2338" height="724" viewBox="0 0 2338 724" fill="none" xmlns="http://www.w3.org/2000/svg">
<path fill-rule="evenodd" clip-rule="evenodd" d="M0 0H296L407.5 342L559 0H1272H1285H1735V187L1486 94V624H1157L1383 94H1285H1272H670H630L407 623L0 0ZM605.5 625.5L580 378L687 361.5L655 621L605.5 625.5ZM595.5 322.5C586.5 313.167 582 302.167 582 289.5C582 276.833 586.5 266 595.5 257C604.833 247.667 615.833 243 628.5 243C641.167 243 652 247.667 661 257C670.333 266 675 276.833 675 289.5C675 302.167 670.333 313.167 661 322.5C652 331.5 641.167 336 628.5 336C615.833 336 604.833 331.5 595.5 322.5ZM886.258 243L904.758 328.5C874.091 339.167 852.424 357.333 839.758 383L922.258 378.5L920.758 412L871.258 419.5L846.758 621L797.258 625.5L777.258 433.5L734.758 440L731.758 388.5L776.758 386.5C779.424 341.833 791.258 307.667 812.258 284C833.258 260 857.924 246.333 886.258 243ZM1096.59 647C1084.92 676 1072.76 696 1060.09 707C1047.76 718.333 1031.26 724 1010.59 724C990.257 724 970.757 716.5 952.09 701.5L967.09 676C978.09 680 990.09 682 1003.09 682C1016.42 682 1028.42 677.667 1039.09 669C1049.76 660.333 1056.59 647.167 1059.59 629.5L956.09 378L1063.09 361.5L1096.09 553.5H1100.09L1164.59 363L1205.09 374L1096.59 647ZM1782.5 467C1782.5 419 1742.17 378.833 1661.5 346.5C1636.17 360.5 1614.17 384.333 1595.5 418C1577.17 451.667 1568 489.5 1568 531.5C1568 552.5 1570.67 574.833 1576 598.5C1601.33 618.167 1641 628 1695 628C1725.33 628 1752.67 624.167 1777 616.5L1762 568C1731.33 579 1698.67 584.5 1664 584.5C1645 584.5 1628 583.5 1613 581.5C1613 564.5 1616.17 548.167 1622.5 532.5C1638.17 536.167 1658.17 538 1682.5 538C1720.83 538 1747 532.5 1761 521.5C1775.33 510.167 1782.5 492 1782.5 467ZM1665 509.5C1647.67 509.5 1636.83 509.333 1632.5 509C1651.5 475.667 1677.5 448 1710.5 426C1721.5 444.333 1727 463.5 1727 483.5C1727 489.833 1726.5 496.167 1725.5 502.5C1702.83 507.167 1682.67 509.5 1665 509.5ZM2014.09 568C1985.76 579 1955.59 584.5 1923.59 584.5C1908.59 584.5 1894.09 583.5 1880.09 581.5C1880.09 547.5 1892.09 515 1916.09 484C1940.09 452.667 1973.09 425.667 2015.09 403L1928.59 346.5C1903.92 360.167 1882.09 384 1863.09 418C1844.42 452 1835.09 489.833 1835.09 531.5C1835.09 552.167 1837.59 574.5 1842.59 598.5C1852.92 607.167 1867.92 614.167 1887.59 619.5C1907.26 625.167 1929.92 628 1955.59 628C1981.26 628 2005.76 624.167 2029.09 616.5L2014.09 568ZM2292.57 357.5C2286.57 355.5 2280.57 354.5 2274.57 354.5C2254.24 354.5 2234.74 364.333 2216.07 384C2197.74 403.667 2181.74 430.333 2168.07 464H2163.57L2182.07 258L2075.07 274.5L2100.57 623.5L2150.07 619C2164.74 498.667 2194.24 430.333 2238.57 414C2244.24 477 2247.07 546.833 2247.07 623.5L2337.07 616C2337.07 566 2333.9 515.667 2327.57 465C2321.24 414 2309.57 378.167 2292.57 357.5Z" fill="url(#paint0_linear_320_827)"/>
<defs>
<linearGradient id="paint0_linear_320_827" x1="877.466" y1="137.572" x2="877.466" y2="744.505" gradientUnits="userSpaceOnUse">
<stop stop-color="#FF6F00"/>
<stop offset="1" stop-color="#FFA661"/>
</linearGradient>
</defs>
</svg>
